<?xml version="1.0" standalone="yes"?>

<svg version="1.1" viewBox="0.0 0.0 569.2992125984252 234.68503937007873" fill="none" stroke="none" stroke-linecap="square" stroke-miterlimit="10" xmlns="http://www.w3.org/2000/svg" xmlns:xlink="http://www.w3.org/1999/xlink"><clipPath id="p.0"><path d="m0 0l569.2992 0l0 234.68504l-569.2992 0l0 -234.68504z" clip-rule="nonzero"></path></clipPath><g clip-path="url(#p.0)"><path fill="#000000" fill-opacity="0.0" d="m0 0l569.2992 0l0 234.68504l-569.2992 0z" fill-rule="evenodd"></path><path fill="#000000" fill-opacity="0.0" d="m0 0l557.7323 0l0 142.83464l-557.7323 0z" fill-rule="evenodd"></path><path fill="#000000" d="m72.68646 93.191246q-1.265625 1.546875 -3.46875 3.140625q-2.203125 1.59375 -5.234375 2.890625q-3.015625 1.28125 -6.765625 2.078125q-3.75 0.796875 -8.0625 0.796875q-5.8125 0 -10.5 -2.0625q-4.6875 -2.0625 -8.015625 -5.953125q-3.328125 -3.890625 -5.140625 -9.53125q-1.796875 -5.65625 -1.796875 -12.828125l0 -9.28125q0 -7.171875 1.890625 -12.8125q1.90625 -5.65625 5.25 -9.59375q3.359375 -3.9375 7.875 -6.0q4.53125 -2.0625 9.828125 -2.0625q5.765625 0 10.046875 1.453125q4.296875 1.453125 7.25 4.203125q2.953125 2.734375 4.609375 6.671875q1.671875 3.9375 2.1875 8.859375l-12.84375 0q-0.65625 -5.25 -3.171875 -7.890625q-2.5 -2.65625 -7.75 -2.65625q-2.53125 0 -4.6875 1.296875q-2.15625 1.28125 -3.75 3.765625q-1.59375 2.484375 -2.53125 6.171875q-0.9375 3.671875 -0.9375 8.5l0 9.375q0.046875 9.5625 3.1875 14.65625q3.140625 5.078125 9.609375 5.125q1.546875 0 3.046875 -0.234375q1.5 -0.234375 2.8125 -0.65625q1.3125 -0.421875 2.3125 -0.953125q1.015625 -0.546875 1.53125 -1.15625l0.046875 -12.375l-11.296875 0l0 -9.84375l24.421875 0l0.046875 26.90625zm14.625 -42.75l27.609375 0l0 40.125l13.734375 0l0 10.59375l-41.34375 0l0 -10.59375l14.4375 0l0 -29.484375l-14.4375 0l0 -10.640625zm13.5 -12.984375q0 -1.5 0.53125 -2.78125q0.546875 -1.296875 1.53125 -2.203125q0.984375 -0.921875 2.359375 -1.4375q1.390625 -0.515625 3.078125 -0.515625q3.46875 0 5.5 1.953125q2.046875 1.9375 2.046875 4.984375q0 3.046875 -2.046875 5.0q-2.03125 1.9375 -5.5 1.9375q-1.6875 0 -3.078125 -0.515625q-1.375 -0.515625 -2.359375 -1.421875q-0.984375 -0.921875 -1.53125 -2.203125q-0.53125 -1.296875 -0.53125 -2.796875zm53.25 63.703125l0 -41.109375l-13.3125 0l0 -9.609375l13.3125 0l0 -2.765625q0 -5.015625 1.59375 -8.859375q1.59375 -3.84375 4.546875 -6.46875q2.953125 -2.625 7.171875 -3.953125q4.21875 -1.34375 9.421875 -1.34375q1.640625 0 3.15625 0.125q1.53125 0.109375 2.984375 0.296875q1.453125 0.1875 2.921875 0.421875q1.484375 0.234375 3.078125 0.515625l-0.84375 10.21875q-1.78125 -0.375 -4.03125 -0.65625q-2.25 -0.28125 -5.296875 -0.28125q-6.09375 0 -8.859375 2.578125q-2.765625 2.578125 -2.765625 7.40625l0 2.765625l18.28125 0l0 9.609375l-18.28125 0l0 41.109375l-13.078125 0zm94.6875 -57.515625l-21.046875 0l0 57.515625l-13.21875 0l0 -57.515625l-20.765625 0l0 -10.734375l55.03125 0l0 10.734375zm39.609375 57.515625q-0.46875 -0.9375 -0.796875 -2.15625q-0.328125 -1.21875 -0.5625 -2.578125q-1.078125 1.171875 -2.484375 2.203125q-1.40625 1.03125 -3.125 1.8125q-1.703125 0.765625 -3.765625 1.203125q-2.0625 0.453125 -4.453125 0.453125q-3.890625 0 -7.15625 -1.125q-3.25 -1.125 -5.59375 -3.140625q-2.34375 -2.015625 -3.65625 -4.796875q-1.3125 -2.796875 -1.3125 -6.078125q0 -8.015625 5.96875 -12.390625q5.984375 -4.390625 17.84375 -4.390625l7.265625 0l0 -3.0q0 -3.65625 -2.390625 -5.78125q-2.390625 -2.140625 -6.890625 -2.140625q-3.984375 0 -5.8125 1.71875q-1.828125 1.703125 -1.828125 4.5625l-13.03125 0q0 -3.234375 1.421875 -6.140625q1.4375 -2.90625 4.171875 -5.109375q2.75 -2.203125 6.703125 -3.484375q3.96875 -1.296875 9.078125 -1.296875q4.59375 0 8.546875 1.125q3.96875 1.125 6.875 3.328125q2.90625 2.203125 4.546875 5.5625q1.640625 3.34375 1.640625 7.75l0 21.75q0 4.078125 0.515625 6.75q0.515625 2.671875 1.5 4.59375l0 0.796875l-13.21875 0zm-12.421875 -9.140625q1.96875 0 3.65625 -0.46875q1.6875 -0.46875 3.046875 -1.21875q1.359375 -0.75 2.34375 -1.703125q0.984375 -0.96875 1.546875 -1.953125l0 -8.71875l-6.65625 0q-3.046875 0 -5.203125 0.59375q-2.15625 0.578125 -3.515625 1.640625q-1.359375 1.046875 -2.015625 2.53125q-0.65625 1.46875 -0.65625 3.203125q0 2.625 1.84375 4.359375q1.859375 1.734375 5.609375 1.734375zm71.0625 -4.78125q0 -1.171875 -0.546875 -2.0625q-0.53125 -0.890625 -1.921875 -1.65625q-1.375 -0.78125 -3.671875 -1.4375q-2.296875 -0.65625 -5.8125 -1.3125q-4.453125 -0.890625 -8.140625 -2.21875q-3.671875 -1.34375 -6.296875 -3.234375q-2.625 -1.90625 -4.109375 -4.390625q-1.46875 -2.484375 -1.46875 -5.71875q0 -3.140625 1.5 -6.0q1.5 -2.859375 4.3125 -5.015625q2.8125 -2.15625 6.84375 -3.421875q4.03125 -1.265625 9.09375 -1.265625q5.296875 0 9.515625 1.25q4.21875 1.234375 7.140625 3.421875q2.9375 2.171875 4.484375 5.171875q1.546875 3.0 1.546875 6.515625l-13.03125 0q0 -2.953125 -2.390625 -4.9375q-2.390625 -2.0 -7.265625 -2.0q-4.546875 0 -6.875 1.640625q-2.3125 1.640625 -2.3125 4.03125q0 1.125 0.46875 2.09375q0.46875 0.953125 1.65625 1.734375q1.203125 0.765625 3.265625 1.40625q2.0625 0.625 5.25 1.09375q4.59375 0.75 8.53125 1.921875q3.9375 1.171875 6.796875 3.03125q2.859375 1.84375 4.46875 4.5q1.625 2.640625 1.625 6.296875q0 3.375 -1.625 6.21875q-1.609375 2.828125 -4.59375 4.890625q-2.96875 2.0625 -7.1875 3.21875q-4.21875 1.140625 -9.421875 1.140625q-5.71875 0 -10.109375 -1.5q-4.375 -1.5 -7.328125 -3.90625q-2.953125 -2.421875 -4.484375 -5.484375q-1.515625 -3.078125 -1.515625 -6.171875l12.421875 0q0.140625 2.0625 1.125 3.546875q0.984375 1.46875 2.53125 2.390625q1.546875 0.90625 3.53125 1.328125q2.0 0.421875 4.109375 0.421875q4.828125 0 7.359375 -1.546875q2.53125 -1.546875 2.53125 -3.984375zm48.796875 -49.21875l0 12.421875l18.9375 0l0 9.609375l-18.9375 0l0 21.796875q0 2.765625 0.625 4.625q0.640625 1.84375 1.8125 2.953125q1.171875 1.09375 2.828125 1.5625q1.671875 0.46875 3.734375 0.46875q1.5 0 3.0625 -0.140625q1.578125 -0.140625 3.0 -0.34375q1.4375 -0.21875 2.671875 -0.453125q1.25 -0.234375 2.140625 -0.46875l1.265625 8.953125q-1.359375 0.796875 -3.1875 1.390625q-1.828125 0.578125 -3.890625 0.953125q-2.0625 0.375 -4.296875 0.578125q-2.21875 0.21875 -4.375 0.21875q-4.171875 0 -7.578125 -1.09375q-3.390625 -1.109375 -5.8125 -3.421875q-2.40625 -2.328125 -3.71875 -5.90625q-1.3125 -3.59375 -1.3125 -8.609375l0 -23.0625l-11.578125 0l0 -9.609375l11.578125 0l0 -12.421875l13.03125 0zm37.171875 12.421875l27.609375 0l0 40.125l13.734375 0l0 10.59375l-41.34375 0l0 -10.59375l14.4375 0l0 -29.484375l-14.4375 0l0 -10.640625zm13.5 -12.984375q0 -1.5 0.53125 -2.78125q0.546875 -1.296875 1.53125 -2.203125q0.984375 -0.921875 2.359375 -1.4375q1.390625 -0.515625 3.078125 -0.515625q3.46875 0 5.5 1.953125q2.046875 1.9375 2.046875 4.984375q0 3.046875 -2.046875 5.0q-2.03125 1.9375 -5.5 1.9375q-1.6875 0 -3.078125 -0.515625q-1.375 -0.515625 -2.359375 -1.421875q-0.984375 -0.921875 -1.53125 -2.203125q-0.53125 -1.296875 -0.53125 -2.796875zm63.09375 54.234375q1.921875 0 3.65625 -0.5625q1.734375 -0.5625 3.046875 -1.59375q1.3125 -1.03125 2.03125 -2.484375q0.734375 -1.453125 0.640625 -3.234375l12.28125 0q0.09375 3.9375 -1.625 7.3125q-1.703125 3.375 -4.65625 5.8125q-2.953125 2.4375 -6.875 3.828125q-3.90625 1.375 -8.265625 1.375q-5.90625 0 -10.359375 -1.984375q-4.453125 -2.0 -7.4375 -5.46875q-2.96875 -3.46875 -4.5 -8.125q-1.515625 -4.671875 -1.515625 -10.015625l0 -1.40625q0 -5.34375 1.5 -10.0q1.5 -4.671875 4.5 -8.140625q3.0 -3.46875 7.421875 -5.484375q4.4375 -2.015625 10.296875 -2.015625q4.6875 0 8.671875 1.40625q3.984375 1.40625 6.859375 3.96875q2.890625 2.546875 4.484375 6.1875q1.59375 3.625 1.5 8.125l-12.28125 0q0.09375 -1.875 -0.5625 -3.5625q-0.65625 -1.6875 -1.921875 -2.90625q-1.265625 -1.21875 -3.046875 -1.9375q-1.78125 -0.734375 -3.890625 -0.734375q-3.09375 0 -5.109375 1.265625q-2.015625 1.265625 -3.21875 3.375q-1.1875 2.109375 -1.6875 4.828125q-0.484375 2.71875 -0.484375 5.625l0 1.40625q0 2.953125 0.46875 5.703125q0.46875 2.734375 1.65625 4.828125q1.203125 2.078125 3.234375 3.34375q2.046875 1.265625 5.1875 1.265625z" fill-rule="nonzero"></path><path fill="#00ff00" d="m269.20734 171.72179l25.409454 -50.81888l69.87402 0l25.409454 50.81888l-25.409454 50.81888l-69.87402 0z" fill-rule="evenodd"></path><path stroke="#000000" stroke-width="1.0" stroke-linejoin="round" stroke-linecap="butt" d="m269.20734 171.72179l25.409454 -50.81888l69.87402 0l25.409454 50.81888l-25.409454 50.81888l-69.87402 0z" fill-rule="evenodd"></path><path fill="#00ff00" d="m389.90027 171.72179l25.409454 -50.81888l69.87399 0l25.409454 50.81888l-25.409454 50.81888l-69.87399 0z" fill-rule="evenodd"></path><path stroke="#000000" stroke-width="1.0" stroke-linejoin="round" stroke-linecap="butt" d="m389.90027 171.72179l25.409454 -50.81888l69.87399 0l25.409454 50.81888l-25.409454 50.81888l-69.87399 0z" fill-rule="evenodd"></path><path fill="#000000" d="m347.74277 171.72047l19.417328 -38.834625l45.480316 0l19.417328 38.834625l-19.417328 38.834625l-45.480316 0z" fill-rule="evenodd"></path><path stroke="#000000" stroke-width="1.0" stroke-linejoin="round" stroke-linecap="butt" d="m347.74277 171.72047l19.417328 -38.834625l45.480316 0l19.417328 38.834625l-19.417328 38.834625l-45.480316 0z" fill-rule="evenodd"></path><path fill="#00ff00" d="m148.51443 171.72179l25.409454 -50.81888l69.87401 0l25.40944 50.81888l-25.40944 50.81888l-69.87401 0z" fill-rule="evenodd"></path><path stroke="#000000" stroke-width="1.0" stroke-linejoin="round" stroke-linecap="butt" d="m148.51443 171.72179l25.409454 -50.81888l69.87401 0l25.40944 50.81888l-25.40944 50.81888l-69.87401 0z" fill-rule="evenodd"></path><path fill="#000000" d="m231.37138 171.72179l19.417328 -38.834625l45.48033 0l19.417297 38.834625l-19.417297 38.834625l-45.48033 0z" fill-rule="evenodd"></path><path stroke="#000000" stroke-width="1.0" stroke-linejoin="round" stroke-linecap="butt" d="m231.37138 171.72179l19.417328 -38.834625l45.48033 0l19.417297 38.834625l-19.417297 38.834625l-45.48033 0z" fill-rule="evenodd"></path><path fill="#00ff00" d="m27.821522 171.72179l25.40945 -50.81888l69.874016 0l25.409447 50.81888l-25.409447 50.81888l-69.874016 0z" fill-rule="evenodd"></path><path stroke="#000000" stroke-width="1.0" stroke-linejoin="round" stroke-linecap="butt" d="m27.821522 171.72179l25.40945 -50.81888l69.874016 0l25.409447 50.81888l-25.409447 50.81888l-69.874016 0z" fill-rule="evenodd"></path><path fill="#000000" d="m108.37008 171.72179l19.41732 -38.834625l45.480316 0l19.417328 38.834625l-19.417328 38.834625l-45.480316 0z" fill-rule="evenodd"></path><path stroke="#000000" stroke-width="1.0" stroke-linejoin="round" stroke-linecap="butt" d="m108.37008 171.72179l19.41732 -38.834625l45.480316 0l19.417328 38.834625l-19.417328 38.834625l-45.480316 0z" fill-rule="evenodd"></path><path fill="#000000" d="m5.8871393 171.72179l19.417324 -38.834625l45.480312 0l19.417328 38.834625l-19.417328 38.834625l-45.480312 0z" fill-rule="evenodd"></path><path stroke="#000000" stroke-width="1.0" stroke-linejoin="round" stroke-linecap="butt" d="m5.8871393 171.72179l19.417324 -38.834625l45.480312 0l19.417328 38.834625l-19.417328 38.834625l-45.480312 0z" fill-rule="evenodd"></path><path fill="#000000" d="m464.11285 171.72179l19.417328 -38.834625l45.480316 0l19.417297 38.834625l-19.417297 38.834625l-45.480316 0z" fill-rule="evenodd"></path><path stroke="#000000" stroke-width="1.0" stroke-linejoin="round" stroke-linecap="butt" d="m464.11285 171.72179l19.417328 -38.834625l45.480316 0l19.417297 38.834625l-19.417297 38.834625l-45.480316 0z" fill-rule="evenodd"></path></g></svg>

